<svg xmlns="http://www.w3.org/2000/svg" width="228" height="120" fill="none"><g clip-path="url(#a)"><path fill="#222222" d="M0 0h228v120H0V0Z" /><path fill="#111111" d="M0 7h228v1h-228z" /><path fill="#111111" d="M48 0h1v120h-1z" /><path fill="#111111" d="M97 0h1v120h-1z" /><path fill="#111111" d="M130 8h1v112h-1z" /><rect width="28" height="3" x="10" y="2" fill="#555555" rx="1.5" /><rect width="28" height="3" x="59" y="2" fill="#555555" rx="1.5" /><rect width="80" height="3" x="104" y="2" fill="#555555" rx="1.5" /><rect width="42" height="5" x="3" y="10" fill="#888888" rx="2" /><rect width="42" height="5" x="3" y="16" fill="#888888" rx="2" /><rect width="42" height="5" x="3" y="22" fill="#888888" rx="2" /><rect width="42" height="5" x="3" y="28" fill="#888888" rx="2" /><rect width="42" height="5" x="3" y="34" fill="#888888" rx="2" /><rect width="42" height="5" x="3" y="40" fill="#888888" rx="2" /><rect width="42" height="5" x="52" y="10" fill="#888888" rx="2" /><rect width="42" height="5" x="52" y="16" fill="#888888" rx="2" /><rect width="42" height="5" x="52" y="22" fill="#888888" rx="2" /><rect width="20" height="5" x="104" y="10" fill="#888888" rx="2" /><rect width="20" height="5" x="104" y="16" fill="#888888" rx="2" /><rect width="5" height="5" x="134" y="10" fill="#44d62c" rx="2" /><rect width="42" height="5" x="142" y="10" fill="#888888" rx="2" /><rect width="5" height="5" x="134" y="18" fill="#44d62c" rx="2" /><rect width="62" height="5" x="142" y="18" fill="#888888" rx="2" /><rect width="52" height="5" x="134" y="26" fill="#888888" rx="2" /><rect width="42" height="5" x="134.5" y="34" fill="#111111" stroke="#5d5d5d" rx="1.5" /></g><defs><clipPath id="a"><path fill="#fff" d="M0 0h228v120H0z" /></clipPath></defs></svg>